# xmcd CD database file
#
# Track frame offsets:
#	150
#	21954
#	43627
#	66123
#	90709
#	114776
#	136473
#	160435
#	187363
#	207146
#	225111
#
# Disc length: 3216 seconds
#
# Revision: 0
# Processed by: cddbd v1.4PL0 Copyright (c) Steve Scherf et al.
# Submitted via: Feurio! 1.66 - http://www.feurio.com
#
DISCID=900c8e0b
DTITLE=Chissica - De Tras para Frente
DYEAR=1900
DGENRE=Africana
TTITLE0=Vien
TTITLE1=Solidão é que aquece
TTITLE2=O Homem que tu me fazes
TTITLE3=Ndikakuela
TTITLE4=Canção para Luanda
TTITLE5=Regresso (Ovasso Viaiukula)
TTITLE6=Kanjila Combembua
TTITLE7=A Minha reflexão
TTITLE8=De tras para frente
TTITLE9=Lissa (Tua Imagem)
TTITLE10=Lile
EXTD=ProduMédia Sanumbila - Beto Bumbu
EXTT0=
EXTT1=
EXTT2=
EXTT3=
EXTT4=
EXTT5=
EXTT6=
EXTT7=
EXTT8=
EXTT9=
EXTT10=
PLAYORDER=
